<?xml version="1.0" standalone="no"?>
<!DOCTYPE svg PUBLIC "-//W3C//DTD SVG 20010904//EN"
 "http://www.w3.org/TR/2001/REC-SVG-20010904/DTD/svg10.dtd">
<svg version="1.0" xmlns="http://www.w3.org/2000/svg"
 width="512.000000pt" height="512.000000pt" viewBox="0 0 512.000000 512.000000"
 preserveAspectRatio="xMidYMid meet">
<metadata>
Created by potrace 1.11, written by Peter Selinger 2001-2013
</metadata>
<g transform="translate(0.000000,512.000000) scale(0.100000,-0.100000)"
fill="#000000" stroke="none">
<path d="M3010 4836 c0 -195 -39 -327 -136 -460 -61 -84 -99 -107 -140 -86
-16 9 -28 28 -36 57 -5 24 -14 43 -19 43 -4 0 -16 -16 -25 -36 l-17 -36 -61 6
c-88 9 -107 27 -131 122 -24 93 -52 142 -106 184 -51 41 -49 28 6 -39 75 -92
73 -77 38 -323 -3 -20 -14 -44 -24 -54 -11 -10 -19 -30 -19 -49 0 -24 -6 -35
-26 -46 -15 -7 -47 -37 -73 -65 -38 -44 -56 -55 -106 -69 -227 -63 -315 -132
-315 -247 0 -49 6 -60 37 -77 31 -16 239 -14 297 3 63 19 188 98 228 145 18
21 49 46 68 56 19 9 44 26 55 36 20 18 20 17 17 -82 -4 -119 13 -180 61 -226
45 -43 87 -58 205 -73 118 -15 176 -5 193 34 15 31 -4 128 -35 180 -24 42 -90
226 -83 233 3 2 30 -46 62 -107 31 -60 62 -110 68 -110 7 0 8 32 4 95 -6 92
-6 95 15 95 36 0 99 -78 163 -200 33 -63 89 -153 125 -200 110 -146 148 -252
138 -385 -6 -67 -42 -147 -73 -159 -24 -9 -17 -23 15 -29 69 -14 90 -70 90
-235 0 -81 7 -143 24 -225 65 -297 89 -452 90 -567 0 -140 -10 -173 -100 -314
-35 -55 -62 -101 -60 -103 1 -1 54 6 117 17 144 25 162 25 185 -1 15 -16 19
-36 19 -88 -1 -75 -25 -138 -94 -239 l-40 -59 75 -104 c75 -105 173 -284 161
-295 -10 -11 -65 16 -130 64 -117 86 -186 100 -264 52 -40 -24 -50 -43 -103
-200 -80 -238 -124 -292 -262 -328 -46 -12 -135 -37 -198 -56 -241 -72 -478
-109 -807 -128 -263 -15 -398 -5 -598 45 -77 19 -171 38 -209 42 -98 10 -140
25 -231 82 -44 27 -114 62 -155 78 -180 67 -341 178 -421 288 l-28 39 -7 -27
c-9 -35 2 -108 21 -145 19 -36 62 -66 235 -162 445 -247 764 -329 1450 -373
360 -23 639 -29 805 -16 264 20 404 51 755 166 366 120 420 134 580 150 80 8
168 21 197 30 74 22 143 72 178 129 28 47 30 56 30 150 0 97 -2 105 -47 216
-26 63 -99 234 -164 380 -224 508 -277 668 -295 879 -30 375 -138 750 -311
1081 -111 213 -205 350 -336 491 -67 71 -69 76 -56 99 19 35 17 65 -7 112
l-21 40 39 40 c46 48 152 119 211 142 24 9 77 19 117 23 100 8 135 29 135 81
0 40 -37 123 -58 130 -7 2 -12 -7 -12 -23 0 -37 -27 -91 -58 -115 -18 -15 -40
-20 -84 -20 -43 0 -72 -7 -108 -25 -71 -36 -105 -33 -129 12 -24 46 -14 87 40
159 61 83 79 124 79 176 0 32 -3 39 -15 34 -8 -3 -15 -1 -15 5 0 19 -19 -1
-37 -39 -43 -90 -228 -232 -303 -232 -48 0 -60 15 -60 74 0 28 -7 59 -15 70
-13 18 -15 18 -48 -3 -51 -32 -64 -28 -69 20 -2 23 -1 67 3 98 4 31 8 110 8
175 1 110 -1 122 -24 163 -14 23 -28 43 -30 43 -3 0 -5 -38 -5 -84z m-780
-900 c0 -13 -137 -110 -187 -132 -32 -14 -66 -33 -75 -41 -23 -21 -48 -10 -48
21 0 29 24 56 50 56 24 0 162 50 215 78 44 23 45 24 45 18z m570 -222 c0 -36
-25 -48 -79 -38 -28 6 -31 10 -31 44 0 28 5 39 19 43 18 4 29 30 46 102 7 27
9 22 26 -45 10 -41 18 -89 19 -106z"/>
<path d="M2313 3121 l-61 -88 -99 -6 c-238 -15 -420 -100 -579 -270 -119 -127
-198 -292 -248 -517 -70 -319 -56 -549 50 -768 l44 -92 -69 -223 c-117 -374
-112 -353 -90 -373 10 -9 16 -20 14 -24 -11 -18 35 -39 95 -46 l65 -6 34 127
c45 171 100 345 109 345 4 0 24 -15 46 -33 l38 -33 -45 -139 c-80 -247 -80
-246 -56 -252 13 -4 19 -12 17 -26 -3 -17 7 -23 62 -37 36 -9 77 -20 91 -24
23 -7 26 -4 38 36 18 64 103 343 105 345 1 1 38 -4 81 -12 203 -36 425 -4 579
85 173 98 289 255 365 493 35 111 36 117 17 117 -8 0 -16 9 -18 21 -2 16 -37
33 -187 90 -101 38 -185 69 -187 69 -1 0 -12 -30 -24 -67 -73 -223 -212 -357
-383 -370 -35 -3 -67 -2 -70 3 -6 11 126 297 235 506 111 214 258 458 282 469
12 5 93 25 180 44 88 19 161 37 163 39 8 7 -47 137 -79 188 -19 29 -37 58 -41
64 -7 11 108 178 210 306 29 37 53 69 53 72 0 4 -11 6 -25 6 -27 0 -32 9 -14
27 15 15 -27 22 -145 26 l-90 2 -84 -115 c-46 -63 -87 -121 -91 -129 -7 -12
-16 -11 -55 5 -25 10 -46 23 -46 27 0 5 27 46 60 93 33 46 60 86 60 89 0 3
-11 5 -25 5 -23 0 -24 2 -15 20 10 19 8 20 -97 20 l-108 0 -62 -89z m53 -446
l36 -15 -20 -32 c-242 -397 -440 -779 -554 -1068 l-10 -25 -34 39 c-19 22 -34
46 -34 54 0 41 245 540 385 782 119 208 166 280 181 280 8 0 31 -7 50 -15z
m-418 -137 c-44 -79 -116 -213 -160 -298 -44 -85 -81 -156 -83 -158 -1 -1 4
37 12 85 40 252 115 398 250 483 27 16 51 30 55 30 3 0 -30 -64 -74 -142z"/>
</g>
</svg>
