<?xml version="1.0" standalone="no"?>
<!DOCTYPE svg PUBLIC "-//W3C//DTD SVG 20010904//EN"
 "http://www.w3.org/TR/2001/REC-SVG-20010904/DTD/svg10.dtd">
<svg version="1.0" xmlns="http://www.w3.org/2000/svg"
 width="1280.000000pt" height="1280.000000pt" viewBox="0 0 1280.000000 1280.000000"
 preserveAspectRatio="xMidYMid meet">
<metadata>
Created by potrace 1.11, written by Peter Selinger 2001-2013
</metadata>
<g transform="translate(0.000000,1280.000000) scale(0.100000,-0.100000)"
fill="#000000" stroke="none">
<path d="M6977 12794 c-1 -1 -24 -5 -52 -8 -27 -4 -63 -9 -80 -11 -16 -3 -46
-7 -65 -9 -332 -45 -530 -84 -663 -133 -186 -68 -379 -196 -459 -303 -35 -48
-46 -90 -52 -199 -7 -135 -19 -144 -238 -185 -111 -21 -180 -46 -254 -95 -93
-61 -135 -102 -137 -136 -2 -26 4 -33 48 -56 28 -15 122 -52 210 -82 164 -56
186 -66 302 -139 134 -83 204 -145 254 -224 54 -84 73 -139 99 -289 11 -66 23
-131 26 -145 3 -14 8 -45 11 -70 2 -25 8 -59 13 -76 7 -29 4 -36 -36 -75 -50
-49 -65 -89 -60 -166 l3 -53 -56 -31 c-109 -61 -204 -152 -247 -237 -31 -61
-32 -62 -189 -102 -215 -55 -413 -129 -551 -206 -115 -64 -224 -183 -239 -261
-2 -10 -4 -52 -5 -93 l-1 -75 -102 -70 c-274 -188 -635 -475 -831 -659 -286
-268 -527 -531 -702 -765 -32 -42 -69 -92 -84 -111 -25 -32 -262 -391 -335
-505 -314 -494 -542 -938 -639 -1246 -51 -161 -55 -171 -60 -199 -3 -14 -16
-74 -29 -135 -35 -154 -65 -350 -91 -595 -3 -25 -8 -85 -11 -135 -3 -49 -8
-121 -10 -160 -3 -38 -8 -135 -10 -215 -3 -80 -7 -212 -10 -295 -7 -197 -13
-412 -20 -615 -17 -560 -31 -652 -131 -870 -43 -93 -322 -649 -334 -665 -29
-38 -90 -291 -97 -398 -11 -190 47 -333 177 -429 130 -96 938 -532 1145 -617
44 -18 98 -41 120 -51 111 -49 299 -118 500 -184 124 -40 175 -55 290 -86 45
-12 256 -61 285 -66 14 -2 48 -9 75 -15 28 -5 118 -21 200 -35 83 -14 161 -27
175 -30 14 -2 52 -7 85 -10 33 -3 62 -8 65 -9 3 -2 33 -6 65 -10 33 -3 74 -8
90 -10 17 -3 72 -9 123 -15 52 -6 108 -12 125 -15 18 -2 64 -6 104 -10 39 -3
82 -8 95 -10 13 -2 62 -6 109 -9 47 -4 97 -9 110 -11 13 -2 71 -6 128 -10 57
-3 118 -8 135 -10 17 -2 76 -6 131 -9 55 -3 134 -8 175 -11 343 -23 583 -29
1070 -29 428 -1 692 6 850 19 30 3 84 7 120 10 36 3 126 15 200 26 74 11 151
22 170 25 19 2 115 23 215 45 99 22 190 42 203 45 155 32 515 141 1002 305
764 257 1028 324 1292 328 59 1 116 4 125 5 10 2 52 7 93 12 41 4 77 8 80 9 3
1 25 5 50 9 178 30 380 124 499 231 194 175 252 482 150 801 -47 149 -246 637
-376 924 -71 156 -383 861 -383 865 0 2 -11 28 -24 57 -13 29 -39 89 -56 133
-17 44 -38 94 -45 110 -86 195 -260 714 -290 865 -2 8 -8 33 -13 55 -6 22 -13
54 -16 70 -3 17 -9 56 -15 89 -11 64 -17 135 -26 298 -4 60 -8 125 -10 145 -2
21 -6 67 -10 103 -5 65 -12 123 -21 190 -3 19 -7 51 -10 70 -2 19 -6 46 -9 60
-3 14 -7 43 -11 65 -40 287 -209 911 -314 1160 -4 11 -29 74 -55 140 -123 315
-311 701 -503 1035 -96 166 -269 431 -344 525 -5 6 -40 51 -79 100 -97 123
-193 231 -316 353 l-104 104 36 70 c19 39 35 85 35 103 0 37 -45 152 -84 213
-14 23 -26 46 -26 51 0 12 108 116 203 195 186 153 373 253 552 295 28 6 95
13 150 16 198 9 296 44 341 121 24 41 26 53 21 112 -3 37 -15 92 -26 122 -31
83 -114 223 -199 335 -230 304 -271 359 -308 421 -38 62 -42 75 -40 126 3 52
8 64 48 115 25 32 50 68 56 80 20 36 14 92 -15 145 -55 102 -319 282 -693 474
-52 26 -140 73 -195 104 -220 122 -451 201 -590 202 -59 1 -115 -6 -232 -27
-39 -7 -159 -19 -186 -18 -53 1 -192 59 -238 99 -35 31 -122 52 -206 52 -46
-1 -84 -2 -86 -4z m-1997 -3178 c0 -2 -28 -21 -62 -43 -35 -22 -76 -48 -92
-58 l-29 -19 16 30 c22 42 37 53 104 74 69 22 63 21 63 16z"/>
</g>
</svg>
